<?xml version="1.0" standalone="no"?>
<!DOCTYPE svg PUBLIC "-//W3C//DTD SVG 20010904//EN"
 "http://www.w3.org/TR/2001/REC-SVG-20010904/DTD/svg10.dtd">
<svg version="1.0" xmlns="http://www.w3.org/2000/svg"
 width="500.000000pt" height="500.000000pt" viewBox="0 0 500.000000 500.000000"
 preserveAspectRatio="xMidYMid meet">

<g transform="translate(0.000000,500.000000) scale(0.100000,-0.100000)"
fill="#000000" stroke="none">
<path d="M1687 4384 c66 -29 39 -33 -114 -21 -41 4 -42 -8 -4 -28 16 -8 36
-22 45 -30 51 -52 -25 -46 -206 16 -179 60 -231 62 -115 4 42 -22 77 -43 77
-47 0 -5 -13 -11 -30 -14 -46 -10 -36 -30 23 -50 73 -24 181 -73 175 -80 -3
-3 -55 14 -114 36 -124 48 -243 64 -278 37 -18 -13 -15 -16 38 -49 31 -19 126
-59 211 -88 146 -49 179 -69 117 -71 -19 0 16 -21 117 -70 137 -66 281 -152
281 -168 0 -18 -15 -20 -38 -5 -22 14 -25 14 -43 -2 -19 -17 -19 -18 8 -47 16
-16 72 -63 126 -104 103 -78 151 -138 163 -200 8 -45 1 -50 -41 -30 -28 13
-39 14 -54 5 -15 -9 -24 -7 -47 9 -26 18 -94 58 -229 134 -55 32 -115 39 -115
14 0 -9 16 -23 35 -32 53 -25 42 -33 -17 -12 -29 10 -65 20 -80 24 -28 5 -28
6 -28 93 0 110 -6 121 -55 103 -52 -19 -62 -5 -46 60 12 47 12 53 -6 78 -47
62 -188 104 -391 116 -128 7 -123 2 50 -60 119 -43 175 -76 205 -121 9 -14 26
-62 38 -107 13 -45 26 -92 30 -104 l7 -23 -53 16 c-30 9 -65 22 -79 29 -14 7
-59 25 -100 39 l-75 27 -17 -21 c-17 -21 -18 -21 -65 -4 -26 9 -86 18 -133 21
l-85 3 195 -68 c222 -78 431 -159 444 -172 12 -12 -38 -76 -78 -101 -42 -25
-107 -25 -131 1 -9 10 -37 27 -61 36 -42 16 -47 16 -109 -5 -36 -11 -72 -21
-81 -21 -28 0 -74 -30 -74 -49 0 -25 19 -31 104 -31 46 0 79 -5 91 -14 18 -13
15 -15 -36 -40 -30 -14 -90 -55 -134 -91 -44 -36 -88 -68 -97 -71 -33 -10 -18
-24 25 -24 46 0 77 13 58 24 -16 11 -13 43 5 50 9 3 29 6 45 6 26 0 29 -3 29
-30 0 -19 -9 -40 -25 -55 -22 -22 -22 -25 -5 -25 23 0 28 -27 17 -100 -7 -48
-6 -56 10 -65 10 -5 37 -31 61 -56 41 -45 45 -46 76 -37 96 30 194 -48 198
-157 3 -49 9 -53 56 -29 34 16 52 12 52 -12 0 -19 -58 -54 -91 -54 -20 0 -29
-9 -47 -45 -29 -60 -28 -81 6 -102 15 -9 33 -23 39 -31 11 -13 19 -13 55 -3
36 11 43 11 54 -3 6 -9 16 -16 21 -16 19 0 23 43 17 161 -8 145 10 234 71 358
145 289 490 473 885 475 195 0 369 -40 530 -122 l75 -38 20 30 c22 33 42 41
64 27 12 -8 12 -16 1 -56 l-13 -47 34 -25 c68 -51 218 -214 272 -295 170 -257
205 -469 112 -667 l-35 -73 -64 4 c-56 3 -83 13 -211 78 -139 71 -150 75 -223
78 -68 3 -81 1 -111 -20 -68 -47 -90 -140 -52 -224 23 -50 52 -72 154 -114
124 -51 167 -100 167 -187 -1 -89 -69 -167 -174 -199 -72 -21 -244 -29 -351
-15 -85 11 -229 42 -268 56 -14 6 -22 -4 -44 -51 -32 -72 -72 -134 -85 -134
-14 0 -2 41 33 122 35 80 36 95 7 104 -50 15 -240 115 -314 164 -42 29 -110
81 -150 116 l-72 63 5 -62 c3 -34 11 -85 19 -114 20 -72 90 -134 185 -165 78
-25 74 -38 -13 -38 -65 0 -106 -13 -114 -35 -4 -9 -5 -18 -2 -20 2 -2 47 -10
101 -18 90 -14 147 -35 147 -56 0 -5 -27 -11 -60 -13 -68 -5 -90 -18 -70 -43
16 -19 65 -19 121 0 41 15 44 15 63 -5 l21 -21 -22 -19 c-39 -32 -28 -40 52
-40 73 0 75 1 90 30 13 26 42 50 59 50 4 0 17 -24 30 -53 28 -61 58 -95 97
-109 23 -8 29 -16 29 -38 0 -29 0 -29 54 -23 l54 6 71 -146 c69 -140 140 -240
191 -267 27 -15 84 33 184 153 96 115 164 169 240 189 41 11 51 19 63 45 16
39 23 40 49 12 16 -18 20 -40 22 -135 4 -113 4 -114 29 -120 16 -4 44 1 74 14
57 24 58 23 28 -74 -11 -38 -22 -76 -24 -84 -8 -26 74 71 130 155 145 216 239
474 286 788 31 201 31 532 0 733 -78 517 -328 1002 -715 1390 -137 136 -295
263 -441 354 -192 119 -493 241 -717 289 -129 28 -288 51 -340 50 l-43 -1 32
-14z m1580 -866 c51 -58 67 -91 66 -140 -1 -74 -35 -118 -128 -164 -74 -37
-75 -37 -96 -18 -53 48 -43 84 42 155 57 48 80 90 72 131 -6 30 1 58 15 58 5
0 18 -10 29 -22z"/>
<path d="M2244 3154 c-22 -8 -56 -30 -75 -50 -31 -32 -34 -40 -34 -95 0 -54 3
-63 28 -85 77 -66 230 -45 307 42 25 29 30 43 30 88 0 42 -5 57 -22 73 -49 43
-153 55 -234 27z"/>
<path d="M3012 3059 c-36 -38 -190 -353 -310 -634 -66 -154 -161 -373 -211
-487 -86 -197 -176 -436 -167 -445 19 -19 65 59 249 419 113 222 224 444 247
493 125 268 175 385 236 552 l34 93 -30 15 c-27 14 -30 14 -48 -6z"/>
<path d="M856 2960 c-53 -21 -86 -46 -86 -66 0 -35 87 -57 131 -34 21 12 26
45 8 56 -6 3 -9 19 -7 35 3 16 4 29 4 29 -1 -1 -23 -9 -50 -20z"/>
<path d="M1853 2924 c-23 -9 -58 -33 -77 -55 -31 -33 -36 -46 -36 -87 0 -85
49 -122 162 -122 77 0 131 23 176 74 27 31 32 44 32 89 0 39 -5 59 -20 75 -39
42 -156 54 -237 26z"/>
<path d="M1746 2505 c-85 -30 -131 -90 -122 -159 10 -81 98 -127 203 -107 66
13 99 30 138 71 26 27 30 39 30 90 0 42 -5 63 -18 78 -36 39 -157 54 -231 27z"/>
</g>
</svg>
